<svg width="720" height="737" viewBox="0 0 720 737" fill="none" xmlns="http://www.w3.org/2000/svg">
<path d="M381.288 735.502C344.415 729.166 317.961 703.647 294.635 681.131C282.143 669.079 270.329 657.685 257.705 649.508C229.179 631.042 203.742 624.027 179.135 617.246C139.36 606.298 98.2289 594.962 53.9698 537.704C9.40916 480.038 -7.3034 425.144 2.88996 369.881C12.8761 315.684 48.4492 268.831 78.3133 234.088C97.7956 211.398 111.418 183.321 125.813 153.597C138.343 127.748 151.287 101.027 168.848 76.7871C213.898 14.6456 257.762 -7.65716 315.511 2.26377C337.782 6.08101 360.675 14.3162 384.905 23.0357C406.328 30.7283 428.467 38.6922 453.282 44.9509C455.675 45.5516 458.218 46.0941 460.818 46.5398C473.442 48.71 486.745 48.7681 500.801 48.8457C515.817 48.9232 531.324 49.0007 547.095 51.7134C565.974 54.9494 582.215 61.5569 596.705 71.8847C641.51 103.798 645.618 140.246 649.593 175.473C651.214 189.831 652.891 204.655 657.356 220.059C663.065 239.707 673.353 257.825 684.243 277.027C700.899 306.364 718.121 336.708 719.835 374.861C723.133 448.299 676.254 489.087 640.719 513.386C629.32 521.195 618.09 527.337 607.237 533.286C584.665 545.648 565.183 556.325 552.389 577.852C548.564 584.285 546.529 595.311 544.57 605.968C542.215 618.757 539.765 631.991 533.755 643.889C512.011 686.983 464.455 732.383 407.233 736.723C398.415 737.343 389.691 736.936 381.288 735.502Z" fill="#4D5DFA"/>
<path d="M68.7202 525.651C135.514 612.071 189.514 582.444 267.745 633.095C312.324 661.947 343.149 722.074 405.855 717.346C453.015 713.78 495.899 676.809 517.039 634.917C526.913 615.346 525.556 585.835 536.315 567.718C558.529 530.34 595.195 521.213 630.297 497.225C670.75 469.555 703.629 434.037 701.01 375.732C698.466 318.861 654.659 278.557 639.284 225.581C623.194 170.125 640.49 126.643 585.962 87.7732C542.589 56.8671 493.864 75.1201 448.776 63.7459C333.521 34.7001 270.552 -31.1424 183.937 88.3545C147.705 138.347 131.331 201.612 92.4042 246.896C23.2175 327.445 -19.8923 410.998 68.7202 525.651Z" fill="#4D5DFA"/>
</svg>
